<svg xmlns="http://www.w3.org/2000/svg" viewBox="0 0 800 800" width="800" height="800" role="img">
  <defs>
    <linearGradient id="bg" x1="0" y1="0" x2="0.4" y2="1">
      <stop offset="0%" stop-color="#f2ece6"/>
      <stop offset="100%" stop-color="#ddd0c3"/>
    </linearGradient>
    <radialGradient id="glow" cx="50%" cy="42%" r="62%">
      <stop offset="0%" stop-color="#ffffff" stop-opacity="0.55"/>
      <stop offset="100%" stop-color="#ffffff" stop-opacity="0"/>
    </radialGradient>
    <radialGradient id="floor" cx="50%" cy="50%" r="50%">
      <stop offset="0%" stop-color="#171e19" stop-opacity="0.20"/>
      <stop offset="100%" stop-color="#171e19" stop-opacity="0"/>
    </radialGradient>
  </defs>
  <rect width="800" height="800" fill="url(#bg)"/>
  <rect width="800" height="800" fill="url(#glow)"/>
  <circle cx="180" cy="640" r="130" fill="#ffffff" opacity="0.18"/>
  <ellipse cx="400" cy="648" rx="215" ry="42" fill="url(#floor)"/>
  <g transform="translate(400 400) rotate(0) scale(1.0) translate(-400 -400)">
  <g>
    <rect x="262" y="238" width="276" height="86" rx="26" fill="#171e19"/>
    <rect x="286" y="252" width="228" height="20" rx="10" fill="#faf6f2" opacity="0.28"/>
    <path d="M282 324 h236 a34 34 0 0 1 34 34 v146 a90 90 0 0 1 -90 90 h-124 a90 90 0 0 1 -90 -90 v-146 a34 34 0 0 1 34 -34 z" fill="#8c5a3c"/>
    <rect x="266" y="398" width="268" height="118" rx="12" fill="#faf6f2" opacity="0.9"/>
    <rect x="304" y="430" width="140" height="16" rx="8" fill="#2f3a35"/>
    <rect x="304" y="464" width="96" height="12" rx="6" fill="#8c5a3c" opacity="0.4"/>
  </g>
  </g>
</svg>
