<svg xmlns="http://www.w3.org/2000/svg" viewBox="0 0 800 800" width="800" height="800" role="img">
  <defs>
    <linearGradient id="bg" x1="0" y1="0" x2="0.4" y2="1">
      <stop offset="0%" stop-color="#e9e6ef"/>
      <stop offset="100%" stop-color="#cdc7dc"/>
    </linearGradient>
    <radialGradient id="glow" cx="50%" cy="42%" r="62%">
      <stop offset="0%" stop-color="#ffffff" stop-opacity="0.55"/>
      <stop offset="100%" stop-color="#ffffff" stop-opacity="0"/>
    </radialGradient>
    <radialGradient id="floor" cx="50%" cy="50%" r="50%">
      <stop offset="0%" stop-color="#171e19" stop-opacity="0.20"/>
      <stop offset="100%" stop-color="#171e19" stop-opacity="0"/>
    </radialGradient>
  </defs>
  <rect width="800" height="800" fill="url(#bg)"/>
  <rect width="800" height="800" fill="url(#glow)"/>
  <circle cx="180" cy="640" r="130" fill="#ffffff" opacity="0.18"/>
  <ellipse cx="400" cy="648" rx="215" ry="42" fill="url(#floor)"/>
  <g transform="translate(400 400) rotate(0) scale(1.0) translate(-400 -400)">
  <g>
    <rect x="196" y="330" width="408" height="96" rx="24" fill="#4b4266" opacity="0.65"/>
    <rect x="212" y="404" width="376" height="102" rx="24" fill="#4b4266" opacity="0.85"/>
    <rect x="228" y="484" width="344" height="110" rx="26" fill="#4b4266"/>
    <path d="M252 520 h296 M252 552 h296" stroke="#f6f4fa" stroke-width="7" opacity="0.35"/>
    <path d="M244 594 v34 M292 594 v34 M340 594 v34 M388 594 v34 M436 594 v34 M484 594 v34 M532 594 v34" stroke="#ca0013" stroke-width="7" stroke-linecap="round" opacity="0.75"/>
  </g>
  </g>
</svg>
